<?xml version="1.0" standalone="no"?>
<!DOCTYPE svg PUBLIC "-//W3C//DTD SVG 20010904//EN"
 "http://www.w3.org/TR/2001/REC-SVG-20010904/DTD/svg10.dtd">
<svg version="1.0" xmlns="http://www.w3.org/2000/svg"
 width="120.000000pt" height="120.000000pt" viewBox="0 0 120.000000 120.000000"
 preserveAspectRatio="xMidYMid meet">

<g transform="translate(0.000000,120.000000) scale(0.100000,-0.100000)"
fill="#000000" stroke="none">
<path d="M312 933 c-7 -3 -19 -19 -28 -36 l-15 -32 24 28 c13 16 40 33 58 37
l34 8 -30 0 c-16 0 -36 -2 -43 -5z"/>
<path d="M448 933 c7 -3 16 -2 19 1 4 3 -2 6 -13 5 -11 0 -14 -3 -6 -6z"/>
<path d="M498 933 c12 -2 32 -2 45 0 12 2 2 4 -23 4 -25 0 -35 -2 -22 -4z"/>
<path d="M658 933 c12 -2 32 -2 45 0 12 2 2 4 -23 4 -25 0 -35 -2 -22 -4z"/>
<path d="M760 933 c19 -3 39 -9 45 -14 5 -5 16 -9 25 -9 8 0 2 7 -14 15 -15 8
-42 14 -60 13 -31 -1 -31 -1 4 -5z"/>
<path d="M828 933 c6 -2 18 -2 25 0 6 3 1 5 -13 5 -14 0 -19 -2 -12 -5z"/>
<path d="M888 914 c12 -8 20 -20 17 -25 -4 -5 -1 -9 4 -9 7 0 11 -26 11 -67
l0 -67 -23 32 c-13 17 -27 29 -31 25 -4 -4 -2 5 3 20 8 21 8 26 -1 21 -7 -5
-9 0 -6 14 4 12 1 25 -4 29 -6 3 -8 1 -5 -4 4 -6 0 -13 -8 -17 -13 -5 -15 -43
-15 -256 0 -240 -1 -251 -21 -271 -22 -22 -66 -20 -81 4 -4 7 -8 73 -8 147 l0
135 -60 -123 c-32 -67 -63 -122 -67 -121 -4 0 -34 53 -65 117 l-57 117 0 -127
c-1 -114 -3 -130 -21 -148 -24 -24 -48 -25 -78 -4 -22 15 -22 19 -22 247 0
133 -4 226 -9 218 -5 -7 -7 -110 -6 -228 2 -200 4 -216 23 -243 l21 -28 -22 5
c-22 5 -22 5 -2 -10 20 -16 19 -16 -7 -17 -17 0 -34 9 -47 26 -12 15 -21 22
-21 17 0 -6 9 -22 21 -37 l20 -26 274 0 273 0 31 26 31 26 0 287 0 288 -23 21
c-13 12 -27 22 -32 22 -5 0 1 -7 13 -16z m-34 -70 c3 -8 2 -12 -4 -9 -6 3 -10
10 -10 16 0 14 7 11 14 -7z m-286 -469 c-3 -3 -9 2 -12 12 -6 14 -5 15 5 6 7
-7 10 -15 7 -18z m17 -34 c3 -6 -4 -9 -15 -8 -11 1 -20 5 -20 9 0 11 28 10 35
-1z m25 -37 c0 -2 -13 -4 -30 -4 -16 0 -30 4 -30 8 0 5 14 7 30 4 17 -2 30 -6
30 -8z m3 -21 c-13 -2 -35 -2 -50 0 -16 2 -5 4 22 4 28 0 40 -2 28 -4z"/>
<path d="M750 899 c-12 -9 -12 -10 4 -5 10 4 30 -1 43 -10 14 -8 27 -13 31
-10 3 3 0 6 -7 6 -7 0 -9 5 -6 10 3 6 0 10 -9 10 -8 0 -20 2 -28 5 -7 3 -20 0
-28 -6z"/>
<path d="M388 893 c6 -2 18 -2 25 0 6 3 1 5 -13 5 -14 0 -19 -2 -12 -5z"/>
<path d="M456 890 c13 -5 41 -52 79 -129 32 -67 61 -121 64 -121 7 1 83 162
78 166 -2 2 -16 -23 -32 -56 -26 -54 -50 -80 -43 -47 3 18 -39 107 -51 107 -6
0 -11 7 -11 16 0 8 -4 12 -10 9 -5 -3 -10 1 -10 10 0 10 -5 13 -12 9 -8 -5 -9
-2 -5 10 4 9 3 15 -2 12 -5 -3 -14 1 -21 9 -7 8 -20 15 -29 14 -12 0 -11 -2 5
-9z"/>
<path d="M715 880 c-4 -6 -11 -8 -16 -5 -5 3 -6 -1 -3 -10 4 -9 7 -15 8 -13 1
2 8 11 15 21 7 9 11 17 8 17 -3 0 -9 -5 -12 -10z"/>
<path d="M350 865 c-6 -8 -10 -19 -8 -26 2 -6 9 0 16 15 13 29 10 33 -8 11z"/>
<path d="M274 600 c0 -146 2 -205 3 -132 2 72 2 192 0 265 -1 72 -3 13 -3
-133z"/>
<path d="M890 811 c0 -5 5 -13 10 -16 6 -3 10 -2 10 4 0 5 -4 13 -10 16 -5 3
-10 2 -10 -4z"/>
<path d="M325 330 c3 -5 8 -10 11 -10 2 0 4 5 4 10 0 6 -5 10 -11 10 -5 0 -7
-4 -4 -10z"/>
</g>
</svg>
